# xmcd
#
# Track frame offsets:
# 150
# 15226
# 26430
# 41355
# 50076
# 62649
# 72708
# 85804
# 108676
#
# Disc length: 1596 seconds
#
#
# Revision: 0
# Processed by: cddbd v1.5.2PL0 Copyright (c) Steve Scherf et al.
# Submitted via: FreeRIP 2.51 
#
DISCID=73063a09
DTITLE=Neuenfeldt, Isabel - Korn, Michael - The Bats in the Belfry - Songs by Tom Waits
DYEAR=1900
DGENRE=Blues
TTITLE0=Alice
TTITLE1=Everything you can think of
TTITLE2=Ice Cream Man
TTITLE3=I'll be gone
TTITLE4=Lost in the Harbour
TTITLE5=More than Rain
TTITLE6=Raindogs
TTITLE7=Shiver me Timbers
TTITLE8=Watch him disappear
EXTD=
EXTT0=
EXTT1=
EXTT2=
EXTT3=
EXTT4=
EXTT5=
EXTT6=
EXTT7=
EXTT8=
PLAYORDER=
